<svg id="a4b887dd-e139-4241-82b4-d276ae53c834" data-name="Camada 1" xmlns="http://www.w3.org/2000/svg" width="147" height="147" viewBox="0 0 147 147"><title>gmail</title><path d="M582.75,213.12H467.35a15.80782,15.80782,0,0,0-15.8,15.8V344.33a15.7993,15.7993,0,0,0,15.8,15.79h115.4a15.79289,15.79289,0,0,0,15.8-15.79V228.92A15.80141,15.80141,0,0,0,582.75,213.12Zm4.89,111.89a9.865,9.865,0,0,1-9.87,9.87h-5.34V263.14l-45.89,34.03-46.27-33.25v70.96h-7.95a9.87136,9.87136,0,0,1-9.87-9.87V248.24a9.86279,9.86279,0,0,1,9.87-9.86h.03l7.92,5.8,46.08,33.75,46.08-34.39,6.77-5.06a9.86993,9.86993,0,0,1,8.44,9.76Z" transform="translate(-451.54999 -213.12)" fill="#7a068e"/></svg>