<svg id="b5f2915c-31ac-4dd2-a24a-be1e5aa626a7" data-name="Camada 1" xmlns="http://www.w3.org/2000/svg" width="147" height="147" viewBox="0 0 147 147"><title>linkedin</title><path d="M418.51,206.25H303.11a15.80142,15.80142,0,0,0-15.8,15.8v115.4a15.80142,15.80142,0,0,0,15.8,15.8h115.4a15.795,15.795,0,0,0,15.8-15.8V222.05A15.795,15.795,0,0,0,418.51,206.25Zm-84.07,126.5h-23v-71h23Zm-11.5-80a13,13,0,1,1,13-13A12.99963,12.99963,0,0,1,322.94,252.75Zm88.75,80h-21V285.86c-6.55-5.84-15.45-8.96-24,3.54v43.35h-21v-71h21v12.92c18.04-29.07,45-5.26,45,6.08Z" transform="translate(-287.31 -206.25)" fill="#7a068e"/></svg>