<svg id="e2fa3729-3310-4578-9d76-40a97026cec9" data-name="Camada 1" xmlns="http://www.w3.org/2000/svg" width="147" height="147" viewBox="0 0 147 147"><title>telegram</title><path d="M579.2,52H463.8A15.80142,15.80142,0,0,0,448,67.8V183.2A15.80142,15.80142,0,0,0,463.8,199H579.2A15.795,15.795,0,0,0,595,183.2V67.8A15.795,15.795,0,0,0,579.2,52ZM554.71,173.25,525.45,151.3l-15.94-11.95,46.63-44.5-59.63,38.59a2.52609,2.52609,0,0,0-.24-.1s-24.8-9.37-30.79-11.63c8.67-3.38995,112.04-43.96,112.04-43.96Z" transform="translate(-448 -52)" fill="#7a068e"/><path d="M556.14,94.85l-46.63,44.5-.41-.31-.17.88-5.53,27.63s-.14-.74-.4-2c-.66-3.28-2.03-10.12-3.35-16.77-1.27-6.35-2.51-12.55-3.08-15.33-.01-.01-.04-.01-.06-.01Z" transform="translate(-448 -52)" fill="#3b0b47"/><polygon points="77.45 99.3 55.4 115.55 60.93 87.92 61.51 87.35 77.45 99.3" fill="#562163"/></svg>