<svg id="bc7fd500-cd5d-4d5f-8610-542c72daece5" data-name="Camada 1" xmlns="http://www.w3.org/2000/svg" width="147" height="147" viewBox="0 0 147 147"><title>whatsapp</title><path d="M418.2,52H302.8A15.80138,15.80138,0,0,0,287,67.8V183.2A15.80138,15.80138,0,0,0,302.8,199H418.2A15.795,15.795,0,0,0,434,183.2V67.8A15.795,15.795,0,0,0,418.2,52ZM360.93,187.31a61.53886,61.53886,0,0,1-32.13-8.99l-30.55,8.56,9.18994-30.39A61.82281,61.82281,0,1,1,360.93,187.31Zm0-115.42a53.60552,53.60552,0,0,0-43.83,84.46l-2.79,9.75-1.65,6.49,6.31-1.7,10.01-2.35a53.60695,53.60695,0,1,0,31.95-96.65Zm-4.92,77.46C335.17,138.7,317.04,114.43,337.16,96.96c21.61,11.24,6.05,25.08,6.05,25.08,0,7.2,17.29,19.02,21.62,19.02,2.38-2.22,14.97-12.6,25.07,6.92C383.53,157.36,369.22,156.09,356.01,149.35Z" transform="translate(-287 -52)" fill="#7a068e"/><path d="M360.93,63.68a61.81813,61.81813,0,0,0-53.49,92.81L298.25,186.88l30.55-8.56A61.822,61.822,0,1,0,360.93,63.68Zm0,115.42005a53.32219,53.32219,0,0,1-31.95-10.56l-10.01,2.35-6.31,1.7,1.65-6.49,2.79-9.75a53.60532,53.60532,0,1,1,43.83,22.75Z" transform="translate(-287 -52)" fill="none" stroke="#7a068e" stroke-miterlimit="10"/><path d="M389.9,147.98c-6.37,9.38-20.68,8.11-33.89,1.37C335.17,138.7,317.04,114.43,337.16,96.96c21.61,11.24,6.05,25.08,6.05,25.08,0,7.2,17.29,19.02,21.62,19.02C367.21,138.84,379.8,128.46,389.9,147.98Z" transform="translate(-287 -52)" fill="none" stroke="#7a068e" stroke-miterlimit="10"/></svg>